<mxfile host="65bd71144e">
    <diagram id="6MftH1TzzmVqvLEvLO2X" name="Page-1">
        <mxGraphModel dx="710" dy="611" grid="1" gridSize="10" guides="1" tooltips="1" connect="1" arrows="1" fold="1" page="1" pageScale="1" pageWidth="850" pageHeight="1100" math="0" shadow="0">
            <root>
                <mxCell id="0"/>
                <mxCell id="1" parent="0"/>
                <mxCell id="2" value="&lt;font style=&quot;font-size: 22px;&quot;&gt;&lt;b&gt;&lt;br&gt;1.Write a Python script to print 'Welcome to Python!'&lt;br&gt;2.Write a Python script that prompts the user for their name and greets them with their name.&lt;br&gt;&lt;/b&gt;&lt;/font&gt;" style="rounded=1;whiteSpace=wrap;html=1;fillColor=#1ba1e2;fontColor=#ffffff;strokeColor=#006EAF;" vertex="1" parent="1">
                    <mxGeometry x="10" y="90" width="710" height="170" as="geometry"/>
                </mxCell>
            </root>
        </mxGraphModel>
    </diagram>
</mxfile>